<?xml version="1.0" encoding="UTF-8" standalone="no"?><!DOCTYPE svg PUBLIC "-//W3C//DTD SVG 1.1//EN" "http://www.w3.org/Graphics/SVG/1.1/DTD/svg11.dtd"><svg width="100%" height="100%" viewBox="0 0 612 146" version="1.1" xmlns="http://www.w3.org/2000/svg" xmlns:xlink="http://www.w3.org/1999/xlink" xml:space="preserve" xmlns:serif="http://www.serif.com/" style="fill-rule:evenodd;clip-rule:evenodd;stroke-linejoin:round;stroke-miterlimit:1.41421;"><rect id="ArtBoard2" x="0" y="0" width="611.812" height="145.19" style="fill:none;"/><g><path d="M99.276,9.073c-0.02,0.067 -0.02,0.139 0,0.207c0.207,0.11 0.442,-0.097 0.622,0l0.069,0.193l0.539,-0.069l0,0.208c0.221,0.124 0.373,0 0.539,0l0,0.138l0.677,0.207c0.18,0 0.152,-0.276 0.415,-0.138c0,0 0,0.249 0.124,0.262l0.415,0l0,0.194l0.4,0c0.313,0.168 0.669,0.24 1.023,0.207l0,0.208c1.023,0 1.852,0.843 2.985,0.746l0,0.262c0.278,-0.029 0.554,0.074 0.746,0.277c0.138,0 0.152,-0.111 0.332,-0.138c-0.017,0.068 -0.017,0.139 0,0.207c0.192,0.148 0.442,0.199 0.677,0.138c0.016,0.089 0.039,0.177 0.069,0.263c0.401,0 0.207,0.096 0.608,0c0.097,0.387 0.968,0.649 1.299,0.621l0,0.194c0.66,0.173 1.28,0.473 1.824,0.884l0.277,0l0,0.139l0.262,0l0,0.138l0.277,0c0.29,0.166 0.594,0.442 0.884,0.608l0.401,0c0.272,0.288 0.632,0.478 1.023,0.539l0,0.207c0.359,0 0.331,0.166 0.746,0.207l0,0.194c0.437,0.152 0.831,0.408 1.147,0.746c0.786,0.323 1.504,0.792 2.114,1.382c0.111,0.097 0.277,0 0.401,0.138c0.125,0.139 0.138,0.346 0.608,0.415l0,0.193c0.926,0.318 1.59,1.286 2.308,1.838c1.659,1.244 2.985,2.764 4.547,4.063c0.166,0.152 0.207,0.429 0.345,0.622l0.539,0.47l0.885,1.147c0,0.111 0.248,0.111 0.331,0.207c0.083,0.097 0.152,0.581 0.608,0.678c0.111,0.746 0.926,1.299 1.3,1.838c0.773,1.133 1.464,2.335 2.238,3.455c0.154,0.332 0.288,0.674 0.401,1.022c0.401,0.719 0.926,1.52 1.285,2.308c0.152,0.304 0.097,0.594 0.277,0.871c0.442,0.677 0.843,1.976 1.285,2.86l0,0.401c0.442,0.885 0.622,1.907 1.023,2.764l0,0.484c0.096,0.304 0.138,0.774 0.276,1.147c0.534,1.599 0.85,3.263 0.94,4.947l0.207,0c-0.122,0.326 -0.169,0.676 -0.138,1.023c0,0.235 0.262,0.428 0.207,0.746c-0.104,0.65 -0.104,1.313 0,1.963c0.205,0.375 0.278,0.808 0.207,1.23c-0.198,0.562 -0.245,1.168 -0.138,1.755l0.138,0l0,0.884c0,0 -0.193,0.097 -0.207,0.138c-0.102,0.609 -0.102,1.23 0,1.838c0,0.18 -0.166,0.373 -0.207,0.539c-0.111,0.442 0.097,0.705 0.138,1.023l-0.207,0c-0.26,2.878 -0.92,5.707 -1.963,8.402c-0.729,2.409 -1.731,4.728 -2.985,6.91c-0.198,0.331 -0.378,0.672 -0.539,1.023l0,0.262l-0.345,0.277c-0.235,0.345 -0.249,0.705 -0.47,1.078c-0.221,0.373 -0.926,1.147 -1.299,1.699c-0.194,0.291 -0.249,0.609 -0.47,0.885c-0.387,0.497 -0.926,0.981 -1.285,1.492c-0.083,0.111 0,0.291 -0.138,0.401c-0.139,0.111 -0.374,0.194 -0.47,0.346c-1.646,2.058 -3.498,3.943 -5.528,5.624c-0.18,0.138 -0.539,0.166 -0.677,0.346c-0.138,0.179 0,0.304 -0.138,0.401c-0.439,0.011 -0.833,0.275 -1.009,0.677c-0.512,0.083 -0.705,0.442 -1.023,0.677c-0.318,0.235 -0.525,0.193 -0.677,0.276c-0.608,0.318 -1.106,1.037 -1.907,1.161c0.019,0.087 0.019,0.176 0,0.263c-0.097,0 0,-0.194 -0.125,0c-0.481,0.235 -0.943,0.507 -1.382,0.815c-0.206,0.029 -0.409,0.075 -0.608,0.138c-0.254,0.209 -0.559,0.347 -0.884,0.401c0.013,0.092 0.013,0.185 0,0.276c-0.333,-0.049 -0.672,0.025 -0.954,0.208l0,0.193c-0.304,0 -0.456,0 -0.608,0c-0.152,0 0,0.069 0,0.207c-0.398,-0.037 -0.8,0.034 -1.161,0.208l-0.069,0.207l-0.331,-0.069l-0.069,0.193c-0.166,0.097 -0.208,0 -0.346,0c-0.014,0.069 -0.014,0.139 0,0.208c-0.456,-0.097 -0.415,0 -0.94,0l0,0.207c-0.359,0 -0.635,-0.166 -1.022,0.069l0,0.194c-0.166,0.083 -0.152,-0.152 -0.332,-0.125c-0.18,0.028 -0.193,0.194 -0.207,0.194c-0.014,0 -0.263,0 -0.346,0c-0.083,0 -0.318,0.262 -0.331,0.276l-0.539,0c0,0 -0.125,0.194 -0.139,0.207l-0.539,0c0,0 -0.124,0.194 -0.138,0.208l-0.677,0c-0.097,0 -0.152,0.248 -0.207,0.262c-0.056,0.014 -0.29,-0.193 -0.608,-0.124c-0.12,0.055 -0.236,0.12 -0.346,0.193c-0.373,0.125 -0.746,-0.179 -1.147,0l-0.069,0.208c-0.586,-0.08 -1.178,-0.103 -1.769,-0.069c-1.158,0.24 -2.345,0.309 -3.524,0.207c-1.178,-0.103 -0.152,-0.194 -0.207,-0.207c-0.609,-0.034 -1.22,-0.011 -1.824,0.069c-0.605,0.079 -0.111,-0.194 -0.139,-0.208c-0.387,-0.138 -0.76,0.111 -1.091,0c-0.234,-0.112 -0.488,-0.178 -0.747,-0.193c0,0.166 0,0.11 -0.262,0.124c-0.235,-0.511 -0.456,0 -0.885,-0.193c0,0 -0.096,-0.194 -0.138,-0.207c-0.276,-0.111 -0.304,0 -0.539,0l-0.138,-0.139l-0.608,0l-0.069,-0.207c-0.235,-0.124 -0.249,0.083 -0.47,0c-0.221,-0.083 -0.207,-0.18 -0.276,-0.193l-0.346,0l-0.193,-0.194l-0.415,0l0,-0.138c-0.124,0 -0.193,0.11 -0.401,0.138c-0.207,0.028 0,-0.138 -0.069,-0.207c-0.069,-0.069 -0.636,0 -0.815,-0.138l-0.069,-0.208l-0.401,0l-0.069,-0.193l-0.346,0.069l0,-0.207c-0.358,-0.165 -0.753,-0.236 -1.147,-0.208c0.011,-0.091 0.011,-0.184 0,-0.276c-0.248,0 -0.801,-0.346 -1.091,-0.332c0,0 0,0.111 -0.125,0l-0.069,-0.276l-0.276,0c-0.355,-0.265 -0.776,-0.428 -1.216,-0.47c0,-0.221 0,-0.111 -0.139,-0.207c-0.138,-0.097 0,0 -0.138,0c0,-0.221 0,-0.097 -0.138,-0.208c-0.138,-0.11 0,0 -0.193,0c0,-0.221 0,-0.096 -0.139,-0.193c-0.138,-0.097 -0.166,-0.111 -0.414,-0.138c-0.249,-0.028 0,-0.111 -0.138,-0.208c-0.358,-0.211 -0.744,-0.369 -1.147,-0.469l0,-0.208c-0.277,0 -0.125,-0.11 -0.277,-0.207c-0.152,-0.097 -0.249,0 -0.332,0c-0.161,-0.222 -0.368,-0.406 -0.608,-0.539l-0.207,0c0,0 0,-0.276 -0.207,-0.345l-0.194,0.069l0,-0.208c-0.418,-0.334 -0.884,-0.604 -1.382,-0.801l0,-0.208c-0.511,-0.165 -0.594,-0.58 -1.147,-0.677l0,-0.207c-0.608,-0.221 -0.898,-0.802 -1.382,-1.147c-1.604,-1.249 -3.002,-2.741 -4.146,-4.422c-0.182,-0.265 -0.385,-0.514 -0.608,-0.747l-0.138,0l-0.193,-0.539c-0.622,-0.829 -1.189,-1.824 -1.838,-2.639c-0.16,-0.559 -0.412,-1.086 -0.747,-1.562c-0.387,-0.76 -0.635,-1.575 -1.022,-2.308c-0.11,-0.358 -0.198,-0.722 -0.263,-1.091c-0.304,-0.788 -0.58,-1.811 -0.884,-2.64c-0.152,-0.428 0,-0.732 -0.138,-1.147c-0.929,-3.738 -0.976,-7.641 -0.139,-11.401c0.18,-0.636 0,-1.161 0.277,-1.769c0.361,-1.221 0.79,-2.42 1.285,-3.593c0.276,-0.511 0.29,-1.12 0.553,-1.631c1.459,-2.907 3.279,-5.619 5.417,-8.071c0.496,-0.513 1.043,-0.976 1.631,-1.382c0.207,-0.152 0.29,-0.456 0.47,-0.608c0.179,-0.152 0.829,-0.345 0.953,-0.815c0.138,0 0.138,0 0.208,0c0.414,-0.124 0.262,-0.318 0.469,-0.47c0.208,-0.152 0.152,0.069 0.277,0c0.428,-0.276 1.492,-1.382 2.239,-1.382c0,-0.221 0,-0.11 0.138,-0.207c0.677,-0.083 1.382,-0.829 2.031,-0.954l0,-0.262c0.116,0.024 0.228,0.066 0.332,0.124l0,-0.193l0.622,0l0,-0.277c0.124,0.001 0.244,0.05 0.331,0.138l0,-0.207c0,0 0.139,0.125 0.277,0l0.124,-0.207l0.277,0l0.138,-0.194c0.221,-0.096 0.207,0.111 0.401,0l0,-0.138c0.193,-0.11 0.221,0.111 0.414,0l0.069,-0.207l0.47,0.069c0.209,-0.05 0.412,-0.12 0.608,-0.207l0,-0.138l0.484,0c0,0 0.11,-0.194 0.124,-0.194c0.014,0 0.581,0 0.747,0l0,0.083c0.29,0 0.304,0.193 0.621,0.138c0.318,-0.055 0.374,-0.221 0.608,-0.207c0.379,0.076 0.769,0.076 1.148,0c0.378,-0.076 0.124,-0.194 0.138,-0.207c0.014,-0.014 1.589,0.138 1.962,0.138c0.373,0 1.907,-0.138 1.907,-0.138c0,0 0.097,0.193 0.138,0.207c0.456,0.166 0.885,-0.138 1.286,0c0,0 0.262,0.18 0.345,0.207c0.304,0 0.415,-0.221 0.608,-0.138l0,0.207c0.277,0.138 0.456,-0.138 0.746,0c0,0 0.083,0.18 0.125,0.194l0.414,0l0.208,0.207c0.193,0 0.221,-0.111 0.47,-0.138c0,0.138 0,0.138 0.069,0.207c0.069,0.069 0.276,-0.11 0.47,0l0,0.207c0.193,0.111 0.235,-0.069 0.414,0l0.125,0.194l0.746,0l0.069,0.207l0.345,0l0,0.208c0.104,-0.061 0.216,-0.107 0.332,-0.139l0,0.277c0.954,0 1.506,0.732 2.239,0.746c0,0.138 0,0.124 0,0.193c0,0.07 0,-0.262 0.069,-0.124c0.18,0.111 0.11,0.152 0.415,0.194l0,0.124c0.428,0 1.022,0.594 1.381,0.815l0.263,0l0,0.208l0.346,0.069l0.069,0.193l0.331,0c0.083,0.069 0.097,0.29 0.208,0.346l0.331,0l0.138,0.331c0.125,0.111 0.36,0.097 0.484,0.208c0.125,0.11 0.097,0.262 0.194,0.345c0.432,0.334 0.842,0.694 1.23,1.078c2.597,2.392 4.506,5.437 5.527,8.817c0.478,1.241 0.775,2.544 0.885,3.869c-0.194,0.954 0.525,1.963 0.207,2.847c0,0.125 -0.166,0.567 -0.207,0.747c-0.042,0.179 0.166,0.925 0,1.16l-0.138,0c-0.125,0.249 0,0.622 0,0.94c-0.208,0.594 -0.401,1.382 -0.608,1.907c0,0.138 0.096,0.208 0.069,0.263c-0.534,1.357 -1.166,2.674 -1.894,3.938c-0.096,0.152 0,0.332 -0.138,0.47c-0.442,0.65 -1.036,1.286 -1.492,1.907c-0.138,0.18 -0.18,0.443 -0.346,0.609c-0.166,0.165 -0.787,0.663 -1.147,1.022c-0.359,0.359 -0.428,0.581 -0.677,0.816c-0.249,0.234 -0.58,0.138 -0.677,0.608c-0.194,0 -0.815,0.262 -0.553,0.4c-0.28,0.094 -0.553,0.209 -0.815,0.346l0,0.207l-0.277,0c-0.324,0.154 -0.604,0.387 -0.815,0.677c-0.18,0 -0.166,0 -0.401,0l0,0.263c-0.57,0.05 -1.125,0.214 -1.63,0.484c0,0.069 0,0 0,0.193c-0.47,0 -0.305,0 -0.609,0.207c-0.304,0.208 0,-0.083 -0.069,-0.138c-0.281,0.023 -0.557,0.093 -0.815,0.207l0,0.139c0,0 -0.484,0 -0.608,0l0,0.207c-0.276,0 -0.304,-0.207 -0.622,-0.138c-0.318,0.069 -0.221,0.207 -0.47,0.193c-0.356,-0.071 -0.722,-0.071 -1.078,0c-0.356,0.071 -0.124,0.207 -0.138,0.207c-0.688,0.096 -1.39,0.025 -2.045,-0.207c-0.334,-0.055 -0.675,-0.055 -1.009,0c-0.304,0 -0.29,-0.152 -0.47,-0.193c-0.18,-0.042 -0.318,0.11 -0.622,0.138l0,-0.207l-0.124,0c-0.194,-0.111 -0.304,0.096 -0.484,0l0,-0.208c-0.305,-0.086 -0.625,-0.11 -0.94,-0.069l0,-0.207l-0.414,0.069l0,-0.193l-0.138,0c-0.709,-0.4 -1.46,-0.72 -2.239,-0.954l0,-0.207c-0.788,-0.138 -0.954,-0.871 -1.686,-0.954c0.017,-0.063 0.017,-0.13 0,-0.193c-0.283,-0.22 -0.578,-0.423 -0.885,-0.608c-0.221,-0.194 -0.29,-0.581 -0.539,-0.747l-0.207,0c-0.377,-0.471 -0.719,-0.97 -1.023,-1.492c-0.717,-1.035 -1.307,-2.153 -1.755,-3.331c-0.068,-0.314 -0.114,-0.633 -0.138,-0.953c-0.272,-0.665 -0.368,-1.389 -0.276,-2.101c0.124,-0.332 -0.304,-0.566 -0.138,-1.009c0.104,-0.201 0.197,-0.409 0.276,-0.622c0.11,-0.497 0,-0.815 0.138,-1.285c0.266,-0.776 0.604,-1.525 1.009,-2.239l0.207,-0.608c0.277,-0.387 0.719,-0.58 0.816,-1.16l0.207,0c0.382,-0.61 0.987,-1.046 1.686,-1.217l0,-0.207l0.746,0.069c0.163,0.293 0.257,0.619 0.277,0.954l-0.208,0.069c-0.056,0.151 -0.056,0.318 0,0.47c-0.245,0.644 -0.449,1.305 -0.608,1.976l0,0.746c-0.17,0.616 -0.217,1.259 -0.138,1.893c0.393,2.702 2.097,5.042 4.547,6.247c0.276,0.152 0.387,0 0.608,0.069l0,0.194l0.414,0l0,0.138c0.249,0.096 0.152,-0.138 0.332,-0.069c0.18,0.069 0.083,0 0.138,0.207c0.188,0.004 0.372,0.051 0.539,0.138c0.304,0.083 0.415,-0.124 0.746,-0.138l0,0.207c0.496,0.056 0.997,0.056 1.493,0l0,-0.207c0.304,0 0.221,0.152 0.415,0.207c0.193,0.055 0.193,0 0.331,-0.069l0.069,-0.207l0.484,0l0.124,-0.277c0.125,0 0.166,0.111 0.346,0.139l0,-0.277c1.105,0.166 1.589,-0.843 2.584,-1.147l0,-0.207l0.194,0c0.193,-0.276 0.552,-0.415 0.746,-0.677c0.104,-0.165 0.219,-0.322 0.345,-0.47l0,-0.207c0.139,0 0.125,0 0.208,0c1.771,-2.34 2.415,-5.35 1.755,-8.209c-0.473,-1.647 -1.33,-3.158 -2.502,-4.409c-0.552,-0.539 -1.81,-1.879 -2.515,-1.824l0,-0.207c-0.428,0 -0.345,-0.194 -0.539,-0.346c-0.193,-0.152 -0.456,-0.11 -0.622,-0.193l-0.262,0l-0.069,-0.208c-0.208,-0.11 -0.608,0 -0.677,-0.069l-0.07,-0.207c-0.4,-0.193 -0.525,0 -0.884,0l0,-0.262c-0.194,0 -0.442,0.11 -0.539,0c-0.097,-0.111 -0.124,-0.249 -0.276,-0.277c-0.152,-0.028 -0.194,0.263 -0.47,0.138l-0.069,-0.207c-0.115,-0.009 -0.231,-0.009 -0.346,0l-0.87,0c-0.918,-0.122 -1.847,-0.122 -2.764,0l0,0.207c-0.47,-0.092 -0.957,-0.024 -1.382,0.194l-0.332,0l-0.069,0.207c-0.166,0.097 -0.207,-0.069 -0.346,0c-0.138,0.069 0,0.097 -0.193,0.138c-0.194,0.042 0,-0.152 -0.207,0c-0.9,0.406 -1.726,0.957 -2.446,1.631c-0.139,0 -0.125,0 -0.208,0.069c-0.686,0.428 -1.263,1.01 -1.686,1.7l-0.207,0c-0.29,0.442 -0.885,0.815 -0.954,1.382l-0.207,0c-0.145,0.347 -0.351,0.665 -0.608,0.94c-0.513,0.97 -0.974,1.966 -1.382,2.985c-0.193,0.428 -0.097,0.774 -0.263,1.23c-0.613,2.017 -0.778,4.144 -0.483,6.232l0.207,0c0,0.249 -0.249,0.525 0,0.816l0.138,0c-0.051,0.155 -0.075,0.319 -0.069,0.483c0,0.139 0.221,0.525 0.277,0.677l0,0.636c0.221,0.525 0.345,1.175 0.677,1.893c0.11,0.263 0.414,0.581 0.539,0.816c0.262,0.525 0.76,1.838 1.285,1.976c0,0.138 0,0.124 0.069,0.194c0.658,1.042 1.541,1.925 2.584,2.584l0,0.207c0.449,0.31 0.878,0.647 1.286,1.009c0.526,0.269 1.026,0.589 1.492,0.953c0.466,0.365 0,-0.152 0,-0.069c0.04,0.063 0.064,0.134 0.069,0.208c0.507,0.15 0.978,0.404 1.382,0.746c0.207,0.124 0.719,0.29 0.954,0.401l0.262,0l0.138,0.276c0.208,0.124 0.512,0 0.608,0.069l0,0.208l0.346,0c0.083,0 0.387,0.234 0.47,0.262l0.401,0l0,0.138c0.29,0.152 0.787,0 0.953,0.069l0,0.208l0.47,0c0,0 0,0.166 0.138,0.207c0.138,0.041 0,0.083 0.138,0l0.139,-0.138c0.331,0.318 0.566,0.304 1.022,0.193l0,0.208l0.608,0.069c0,0 0.125,-0.235 0.332,-0.139l0,0.208c0.567,0.276 1.189,-0.166 1.838,0c0.251,0.128 0.536,0.176 0.815,0.138l0.125,-0.138c0.635,-0.194 1.257,0.276 1.838,0l0,-0.208c0.249,-0.124 0.29,0.208 0.608,0.139c0.318,-0.069 0.318,-0.263 0.345,-0.277c0.028,-0.014 0.152,0.18 0.401,0.138c0.12,-0.055 0.236,-0.12 0.346,-0.193c0.221,-0.083 0.248,0.124 0.469,0l0,-0.207c0.222,-0.111 0.152,0.166 0.332,0.138c0.18,-0.028 0.207,-0.235 0.277,-0.277l0.469,0c0.415,-0.096 0.595,-0.304 1.023,-0.276l0,-0.262c0.318,0 0.387,0.179 0.746,0l0,-0.208c0.125,-0.083 0.139,0.083 0.277,0c0.138,-0.083 0,-0.069 0,-0.207c1.002,-0.189 1.948,-0.605 2.764,-1.216c0.016,-0.068 0.016,-0.139 0,-0.208c0.207,0 0.179,0 0.262,0c0.197,-0.129 0.405,-0.24 0.622,-0.331l0,-0.207c0.085,0.027 0.177,0.027 0.263,0c0.69,-0.365 1.293,-0.874 1.769,-1.493c0.212,-0.155 0.439,-0.289 0.677,-0.401c0.884,-0.819 1.659,-1.748 2.308,-2.764c0.083,-0.11 0.318,-0.138 0.4,-0.262l0,-0.346c0.07,-0.083 0.277,-0.11 0.346,-0.207c0.069,-0.097 0,-0.318 0.069,-0.332c2.764,-3.399 4.146,-7.601 5.155,-12.824c0.123,-0.918 0.123,-1.847 0,-2.764c-0.235,-0.581 0.207,-1.382 0.124,-1.769c0.026,-0.497 0.026,-0.996 0,-1.493c0,-0.207 -0.276,-0.373 -0.207,-0.677c0.318,-0.249 -0.194,-0.815 -0.138,-1.161c0.042,-1.055 -0.192,-2.103 -0.678,-3.04c-0.065,-0.707 -0.247,-1.398 -0.539,-2.045c-1.181,-2.902 -2.808,-5.602 -4.823,-8.002c-0.826,-0.971 -1.707,-1.894 -2.639,-2.764c-0.322,-0.215 -0.619,-0.465 -0.885,-0.746l-0.207,0l0,-0.207c-0.69,-0.419 -1.325,-0.92 -1.893,-1.493l-0.277,0l0,-0.235c-0.507,-0.267 -0.972,-0.607 -1.382,-1.009c-0.497,-0.096 -0.608,-0.483 -1.147,-0.539l0,-0.207c-0.594,-0.097 -0.898,-0.58 -1.382,-0.746c-0.207,-0.083 -0.193,0.083 -0.331,0l0,-0.138c-0.525,-0.401 -1.175,-0.415 -1.382,-0.816c-0.085,0.06 -0.178,0.106 -0.277,0.138c0,-0.165 0,-0.193 -0.069,-0.276c-0.152,0.152 0,0.083 -0.262,0c-0.083,-0.29 -1.382,-0.774 -1.7,-0.954c-0.106,0.066 -0.223,0.113 -0.346,0.139l0,-0.263c-0.278,0.029 -0.554,-0.073 -0.746,-0.276c-0.124,0 -0.193,0.11 -0.401,0.138l0,-0.277l-0.138,0c-0.083,0 -0.11,0 -0.276,0l0,-0.207c-0.235,0 -0.166,0.083 -0.401,0.138l0,-0.262l-0.47,0l0,-0.194l-0.138,0c-0.124,-0.083 -0.138,0 -0.276,0c-0.249,-0.166 -0.111,-0.207 -0.401,0c0,0 -0.097,-0.166 -0.138,-0.207c-0.346,-0.263 -0.747,-0.097 -1.092,-0.069c0.025,-0.067 0.025,-0.141 0,-0.207c-0.166,-0.083 -0.249,0.11 -0.47,0c-0.221,-0.111 -0.097,-0.18 -0.138,-0.194l-0.47,0.069l-0.138,-0.207l-0.608,0.069c0,0 -0.291,-0.221 -0.401,-0.276c-0.111,-0.056 -0.152,0.221 -0.346,0.138l-0.069,-0.207l-0.4,-0.07c-0.194,0 -0.235,0.263 -0.484,0.139l0,-0.208c-0.415,-0.179 -0.733,0.221 -1.009,0l0,-0.193l-0.954,0c0,0 -0.304,0.262 -0.538,0.138c-1.603,-0.429 -3.29,-0.429 -4.893,0c-0.387,0.166 -0.525,-0.235 -0.939,-0.138c-0.213,0.019 -0.422,0.066 -0.622,0.138l0,0.124c-0.304,0.152 -0.373,-0.152 -0.608,-0.124l-0.401,0l-0.069,0.207c-0.249,0.125 -0.29,-0.152 -0.47,-0.138c-0.171,0.03 -0.321,0.131 -0.415,0.277c-0.262,0.124 -0.221,-0.166 -0.47,-0.139c-0.248,0.028 -0.317,0.249 -0.414,0.277c-0.097,0.027 -0.484,0 -0.677,0l0,0.207c-0.277,0 -0.208,-0.124 -0.263,-0.138c-0.304,-0.125 -0.249,0.152 -0.345,0.193c-0.097,0.042 -0.443,0 -0.608,0l0,0.208c-0.304,0 -0.235,-0.111 -0.539,0l0,0.207c-0.194,0 -0.263,-0.166 -0.415,-0.138c-0.12,0.079 -0.232,0.172 -0.332,0.276l-0.069,-0.138c-0.207,0 -0.166,0.152 -0.276,0.207c-0.111,0.056 -0.194,-0.097 -0.277,0l-0.193,0.208l-0.276,0c-0.21,0.097 -0.413,0.208 -0.608,0.331c-0.332,0.152 -0.871,0.097 -1.161,0.277l0,0.207l-0.277,-0.069c-0.124,0 -0.373,0.29 -0.47,0.331l-0.276,0c-0.145,0.132 -0.283,0.27 -0.415,0.415l-0.331,0c-0.27,0.182 -0.569,0.318 -0.885,0.401l0,0.276c-0.121,-0.012 -0.237,-0.06 -0.331,-0.138l0,0.207c-0.208,0 -0.194,0 -0.277,0c-0.083,0 0,0.125 -0.345,0.138c-0.097,0.166 0,0.097 -0.263,0.125c-0.262,0.028 0,0.11 -0.138,0.207c-0.138,0.097 -0.843,0.498 -1.382,0.608l0,0.208c-0.829,0.069 -1.161,0.787 -1.907,0.953l0,0.207c-0.152,0 -0.18,0 -0.263,0l-1.16,0.747l0,0.276c-0.083,0.097 -0.332,0 -0.47,0.069c-0.015,0.092 -0.015,0.185 0,0.277c-0.076,-0.005 -0.15,0.019 -0.208,0.069c-0.28,0.035 -0.503,0.258 -0.539,0.539l-0.276,0c-0.357,0.39 -0.766,0.73 -1.216,1.008c-0.726,0.657 -1.404,1.364 -2.032,2.115c-0.373,0.373 -1.105,0.898 -1.23,1.492l-0.193,0c-0.221,0.318 -0.594,0.484 -0.677,0.94l-0.208,0c-0.248,0.705 -1.008,1.202 -1.381,1.769c-0.208,0.276 -0.332,0.677 -0.539,0.954c-0.208,0.276 -0.36,0.152 -0.415,0.608l-0.207,0c-0.293,0.622 -0.68,1.195 -1.147,1.699c-0.194,0.263 -0.208,0.609 -0.415,0.871c-0.654,0.91 -1.241,1.866 -1.755,2.861c-1.525,3.201 -2.818,6.508 -3.87,9.895c-0.124,0.359 0,0.594 -0.138,0.953c-0.29,0.774 -0.456,1.811 -0.677,2.64c-0.083,0.331 0.083,0.456 0,0.677c-0.229,0.488 -0.342,1.022 -0.332,1.562l0.125,0c0,0.179 -0.221,0.428 -0.263,0.608l0,0.677c0,0.207 -0.373,0.691 -0.207,1.092l0.138,0c-0.071,0.323 -0.163,0.642 -0.276,0.953l0.069,1.824c-0.21,0.934 -0.257,1.897 -0.138,2.847c0.138,0.498 0,1.382 0.138,1.976l0,0.677l0.207,0c0.083,0.166 -0.138,0.457 -0.138,0.747c0.019,0.282 0.089,0.558 0.207,0.815l0,0.746c0.177,1.257 0.426,2.503 0.746,3.732c0.194,0.511 0.07,1.243 0.263,1.755c0.194,0.511 0.498,1.534 0.746,2.169c0.097,0.222 0.125,0.913 0.277,1.3c0.677,1.658 1.188,3.109 2.031,4.74c0.152,0.29 0.138,0.58 0.277,0.884c0.311,0.584 0.652,1.151 1.022,1.7c0.208,0.345 0.166,0.705 0.401,1.009c0.967,1.382 1.686,2.86 2.64,4.146c0.86,0.987 1.654,2.03 2.377,3.123l0.207,0c0,0.138 0,0.124 0,0.193c0.376,0.631 0.841,1.204 1.382,1.7c0.541,0.497 0.276,0.069 0.276,0.069c0.822,1.104 1.748,2.127 2.764,3.054c0.429,0.429 1.009,1.299 1.7,1.382l0,0.208c0.525,0.345 0.926,0.912 1.382,1.285c0.434,0.279 0.841,0.598 1.216,0.953l0.207,0l0,0.194c0.567,0.207 0.774,0.663 1.382,0.746c0,0.221 0,0.111 0,0.277c0.163,0.106 0.347,0.177 0.539,0.207l0,0.193c0.284,0.133 0.537,0.321 0.747,0.553l0.276,0l0,0.194c0.51,0.238 0.977,0.561 1.382,0.953c0.235,0.166 0.511,0.166 0.746,0.346c0.235,0.179 0.401,0.428 0.608,0.539l0.277,0l0,0.138c0.15,0.12 0.306,0.23 0.469,0.332c0.215,0.029 0.421,0.099 0.609,0.207c0,0.069 0,0.069 0.069,0.207c0.331,0 0.276,0.18 0.483,0.263l0.069,0c0,-0.111 0.097,0 0.194,0l0,0.207c0.539,0.111 0.511,0.304 1.023,0.345c0,0.152 0,0.194 0,0.263c0.068,-0.016 0.139,-0.016 0.207,0l0,0.138c0.427,0.399 0.979,0.638 1.561,0.677l0,0.208c0.609,0 0.65,0.4 1.148,0.414c0,0.208 0,0.097 0.138,0.194c0.083,-0.166 0,0 0.138,-0.138c0,0.248 0,0.179 0.124,0.276c0.111,-0.18 0,0 0.208,0c0.152,0.567 1.382,0.594 1.561,0.954c0.125,-0.097 0,-0.097 0.277,-0.139c0.276,-0.041 0,0.139 0.069,0.208c0.268,0.147 0.565,0.237 0.87,0.262c0,0.083 0,0.069 0,0.207c0.816,0 0.774,0.443 1.382,0.346c0.005,0.07 0.029,0.137 0.069,0.193c0.291,0.235 0.374,0.139 0.678,0c-0.019,0.068 -0.019,0.14 0,0.208c0.018,0.068 0.87,0.345 0.884,0.345c0.05,-0.07 0.123,-0.119 0.207,-0.138l0,0.263c0.456,0 0.415,0.11 0.885,0c-0.02,0.091 -0.02,0.185 0,0.276c0.11,0 0.124,-0.18 0.193,0c0.069,0.18 0.125,0 0.208,0.207c0.099,-0.078 0.219,-0.126 0.345,-0.138c0.124,0.346 0.166,0 0.332,0.138c0.166,0.138 0.096,0.18 0.138,0.208c0.301,0.144 0.652,0.144 0.953,0c0,0.152 0,0.138 0,0.207c0.295,0.15 0.645,0.15 0.94,0c0,0.138 0,0.138 0.069,0.207c0.319,0.149 0.676,0.198 1.023,0.138l0,0.194l0.138,0c0,0 0.152,-0.097 0.401,-0.125l0,0.263c0.124,0 0,0 0.138,0c0.125,-0.069 0.26,-0.116 0.401,-0.138c0.083,0.235 0.083,0.235 0.345,0.276c0.097,-0.179 0,-0.11 0.277,-0.138l0,0.207l0.124,0c0.125,0 0.263,-0.11 0.484,0l0,0.139c0.276,0.152 0.387,0 0.677,0l0,0.193l0.138,0c0.194,0.111 0.346,-0.083 0.539,0c0.194,0.083 0.097,0.193 0.138,0.207c0.263,0.111 0.291,0 0.539,0c0.249,0 0.318,0.18 0.401,0.208c0.083,0.027 0.194,-0.249 0.415,-0.139c0,0 0.138,0.235 0.262,0.277c0.125,0.041 0.18,-0.221 0.415,-0.138c0.235,0.083 0.249,0.248 0.401,0.276c0.152,0.028 0.207,-0.263 0.483,-0.138c0,0 0.249,0.235 0.401,0.262c0.152,0.028 0.276,-0.262 0.539,-0.124l0,0.193c0.359,0.18 0.884,-0.124 1.023,0l0.069,0.208c0.345,0.166 0.788,-0.125 1.078,0l0,0.138c0.138,0.008 0.276,0.008 0.414,0c0.415,0.097 0.622,-0.304 0.954,-0.138l0,0.207c0.497,0.235 1.382,-0.18 1.824,0l0,0.124l1.962,0.07c0.926,0 2.447,-0.07 3.676,-0.07c0.991,0.118 1.994,0.076 2.972,-0.124c0.497,-0.18 1.243,0.249 1.769,0l0,-0.207c0.262,-0.138 0.608,0.235 1.022,0.138c0.083,0 0.36,-0.194 0.401,-0.207c0.373,-0.125 0.76,0.179 1.161,0l0,-0.208c0.262,-0.124 0.304,0.208 0.622,0.139c0.137,-0.036 0.271,-0.082 0.401,-0.139l0,-0.124c0.262,-0.138 0.317,0.193 0.608,0.124c0.29,-0.069 0.29,-0.235 0.345,-0.262c0.276,-0.152 0.429,0.235 0.815,0l0,-0.207c0.249,-0.139 0.318,0.138 0.47,0.138c0.152,0 0.373,-0.318 0.608,-0.346c0,0 0.263,0.18 0.415,0.138c0.152,-0.041 0.124,-0.193 0.124,-0.207l0.553,0c0,0 0.125,-0.193 0.138,-0.207l0.539,0c0.097,0 0.152,-0.235 0.208,-0.263c0.055,-0.027 0.221,0.194 0.469,0.138c0,0 0.125,-0.207 0.139,-0.207c0.013,0 0.442,0 0.608,0l0,-0.207c0.276,0 0.331,0.124 0.47,0l0.138,0l0,-0.207c0.276,0 0.276,0.124 0.401,0.069l0.138,0l0,0.138c0.318,0 0.193,0 0.345,0.193c0.097,0 0.138,-0.235 0.194,-0.262l0.483,0l0,-0.138c0.152,0 0.194,0.082 0.263,0c0.069,-0.083 0.235,-0.194 0.276,-0.208l0.47,0l0,-0.207l0.415,0c0.265,-0.1 0.516,-0.235 0.746,-0.401c0.249,0.111 0.18,0.083 0.401,-0.138c0.083,0 0.083,0.207 0.276,0.138c0.194,-0.069 0,-0.221 0.263,-0.207c0.947,-0.206 1.873,-0.502 2.764,-0.885l0,-0.207c0.166,0 0.207,0.18 0.331,0.138c0.125,-0.041 0.125,-0.235 0.208,-0.262c0.083,-0.028 0.345,0.097 0.539,0c0.349,-0.24 0.744,-0.405 1.161,-0.484c0,-0.138 0,-0.124 0,-0.207c0,-0.083 0,0 0.193,0l0,0.124l0.746,-0.262l0,-0.208l0.277,0l0.4,-0.207l0,-0.207l0.346,0c0,-0.221 0,-0.097 0.138,-0.194c0.346,0.152 0.622,-0.262 0.94,-0.414c0.318,-0.152 0,0.179 0.207,0l0,-0.208l0.277,0.069l0.069,-0.193c0.138,-0.083 0.304,0 0.539,0c0.551,-0.366 1.145,-0.663 1.769,-0.884l0,-0.277c0.121,0.015 0.235,0.063 0.331,0.138c0,-0.221 0,-0.11 0.138,-0.207c0.139,-0.097 0,0 0.139,0l0,-0.263c0.207,0 0.207,0.125 0.262,0c0.055,-0.124 0,-0.124 0.207,-0.193c0.332,0.152 0.94,-0.47 1.217,-0.608c0.276,-0.138 0.359,0 0.552,-0.138l0,-0.138c0.151,-0.066 0.309,-0.112 0.47,-0.139l0,-0.207l0.208,0c0.392,-0.359 0.866,-0.615 1.382,-0.746l0,0.207c1.119,0 1.699,-1.161 2.763,-1.382c0,-0.221 0,-0.097 0.139,-0.193c0.138,-0.097 0.483,-0.36 0.884,-0.415c0,-0.221 0,-0.097 0.138,-0.207c0.139,-0.111 0.277,-0.138 0.539,-0.194l0,-0.207l0.138,0c0.197,-0.087 0.4,-0.156 0.609,-0.207l0,-0.194c0.511,0 0.566,-0.331 1.022,-0.414c-0.017,-0.092 -0.017,-0.185 0,-0.277c0.097,0 0,0.194 0.125,0c0.511,-0.138 0.787,-0.525 1.382,-0.608c0,-0.221 0,-0.097 0.124,-0.207c0.124,-0.111 0.304,-0.125 0.622,-0.125l0,-0.207c0.26,0.072 0.532,0.096 0.801,0.069c0.092,1.242 -0.38,2.461 -1.285,3.317c-0.235,0.29 -0.29,0.677 -0.539,0.954c-0.249,0.276 -0.373,0.248 -0.47,0.414l0,0.332c-1.09,1.216 -2.248,2.37 -3.468,3.455c-0.679,0.752 -1.429,1.437 -2.239,2.045l0,0.194c-0.064,-0.017 -0.13,-0.017 -0.194,0c-0.331,0.09 -0.593,0.347 -0.691,0.677c-0.242,0.025 -0.462,0.15 -0.608,0.345c-0.016,0.068 -0.016,0.139 0,0.207c-0.48,0.181 -0.917,0.458 -1.285,0.816l0,0.193l-0.207,0c-0.587,0.355 -1.095,0.825 -1.493,1.382c-0.097,-0.083 0,-0.083 -0.193,-0.138c-0.208,0.249 -0.595,0.318 -0.677,0.677l-0.415,0c-0.097,0.373 -0.47,0.277 -0.815,0.539c-0.565,0.501 -1.203,0.911 -1.894,1.216l0,0.208c-0.576,0.093 -1.102,0.381 -1.492,0.815c-0.332,-0.097 -1.161,0.567 -1.562,0.815c-0.401,0.249 -0.345,0 -0.539,0.139c-0.193,0.138 -0.387,0.165 -0.553,0.262l0,0.207l-0.193,0l0,0.208l-0.276,0c-0.374,0.221 -0.636,0.566 -1.217,0.608l0,0.207c-1.008,0 -1.686,0.802 -2.584,0.954l0,0.262c-0.18,0 -0.193,-0.152 -0.332,-0.138c-0.138,0.014 -0.373,0.345 -0.483,0.415l-0.125,0c-0.537,0.127 -1.06,0.308 -1.561,0.539c0,0.082 0,0 0,0.207l-0.415,0l0,0.207c-0.744,0.056 -1.464,0.289 -2.1,0.677l-0.332,0l-0.138,0.208c-0.083,0 -0.553,0 -0.747,0.138c-0.193,0.138 0,0.11 0,0.262c-0.29,0 -0.234,-0.083 -0.469,-0.138l0,0.207c-0.313,-0.081 -0.641,-0.081 -0.954,0l0,0.208l-0.415,0c0,0 -0.11,0.193 -0.124,0.207c-0.014,0.014 -0.29,0 -0.415,0c-0.124,0 0,0 0,0.194c-0.248,0 -0.29,-0.208 -0.538,-0.07l0,0.139c-0.194,0.096 -0.374,0 -0.539,0l0,0.207c-0.318,0 -0.304,-0.124 -0.609,0l0,0.207c-0.262,0 -0.152,0 -0.276,-0.138c-0.124,-0.138 -0.249,0.166 -0.345,0.207c-0.097,0.042 -0.387,0 -0.608,0l0,0.194c-0.466,-0.055 -0.937,-0.008 -1.382,0.138l0,0.207c-0.249,0 -0.456,-0.235 -0.747,-0.069l0,0.138c-0.138,0 -0.566,0 -0.746,0l0,0.208c-0.304,0 -0.484,-0.249 -0.815,0l0,0.193c-0.263,0.138 -0.249,-0.193 -0.539,-0.124c0,0 -0.235,0.179 -0.277,0.193l-0.608,0c-0.152,0 -0.318,0.235 -0.4,0.277c-0.083,0.041 -0.512,-0.208 -0.885,-0.069l-0.138,0.207c-0.221,0.097 -0.539,-0.249 -1.023,0c-1.064,0.245 -2.155,0.357 -3.247,0.332l0,0.207c-0.628,-0.125 -1.269,-0.172 -1.908,-0.138c-0.901,0.236 -1.843,0.283 -2.763,0.138c-0.406,-0.063 -0.821,-0.039 -1.217,0.069c-0.615,0.092 -1.243,0.045 -1.838,-0.138l-2.238,0c0,0 -0.304,0.276 -0.539,0.138l-0.069,-0.207l-1.286,-0.125c-0.096,0 -0.166,0.208 -0.414,0.125l-0.069,-0.125c-0.267,-0.071 -0.54,-0.118 -0.816,-0.138c-0.235,0 -0.235,0.263 -0.539,0.138c-0.304,-0.124 -0.58,-0.373 -0.953,-0.276c-0.069,0 0,0.179 -0.194,0.138c-0.177,-0.106 -0.362,-0.198 -0.553,-0.276c-0.276,0 -0.304,0.29 -0.608,0.138l0,-0.207c-0.304,-0.152 -0.525,0 -0.677,0c-0.152,0 -0.318,-0.235 -0.47,-0.263c-0.152,-0.028 -0.304,0.29 -0.608,0.124l0,-0.193c-0.331,-0.18 -0.47,0 -0.815,0l0,-0.511l-0.138,0l-1.078,-0.208c0,0 0,0.097 -0.277,0.138l0,-0.207l-0.138,0c-0.221,-0.124 -0.373,0.111 -0.608,0l0,-0.207c-0.29,-0.125 -0.304,0 -0.608,0.069l0,-0.194c-0.276,0 -0.401,0.111 -0.484,0c-0.082,-0.11 -0.069,0 -0.124,-0.207c-1.382,-0.152 -2.764,-0.774 -3.869,-0.815l0,-0.207c-0.581,0 -0.47,-0.097 -0.954,0l0,-0.263l-0.138,0c-0.279,-0.142 -0.57,-0.258 -0.871,-0.346l-0.345,0c-0.772,-0.445 -1.629,-0.723 -2.516,-0.815c-0.004,-0.096 -0.028,-0.19 -0.069,-0.276l-0.193,0.138c-0.111,0 -0.138,-0.235 -0.207,-0.263l-0.277,0l-0.124,-0.193l-0.277,0l0,-0.138c-0.138,0 -0.152,0.11 -0.345,0.138l0,-0.277c-0.622,0 -0.802,-0.373 -1.382,-0.331c0,-0.152 0,-0.138 0,-0.207c-0.278,-0.18 -0.612,-0.253 -0.94,-0.208c0,-0.138 0,-0.124 0,-0.207c-0.269,-0.21 -0.623,-0.282 -0.953,-0.194c0,-0.207 0,-0.096 0,-0.207c-0.554,-0.352 -1.175,-0.583 -1.824,-0.677c0.016,-0.068 0.016,-0.139 0,-0.207c-0.852,-0.548 -1.785,-0.958 -2.764,-1.216c0,-0.263 0.069,-0.194 -0.263,-0.208l0,-0.207c-0.304,0 -1.382,-0.65 -1.631,-0.884l-0.138,0c-0.153,-0.185 -0.335,-0.344 -0.539,-0.47l-0.207,0l0,-0.208c-0.207,-0.138 -0.456,-0.138 -0.677,-0.262c-0.221,-0.125 -0.235,-0.277 -0.332,-0.346l-0.346,0c-0.469,-0.331 -1.008,-0.926 -1.63,-0.953l0,0.069l-0.194,0c-0.385,-0.466 -0.907,-0.8 -1.492,-0.954c0.014,-0.068 0.014,-0.139 0,-0.207c-0.386,-0.383 -0.861,-0.663 -1.382,-0.815l0,-0.194c-0.539,-0.166 -0.857,-0.677 -1.285,-0.953c-0.809,-0.481 -1.56,-1.051 -2.239,-1.7l-0.207,0l0,-0.208c-0.825,-0.606 -1.593,-1.286 -2.295,-2.031c-0.317,-0.276 -0.801,-0.442 -1.091,-0.746c-1.617,-1.672 -3.151,-3.455 -4.879,-5.017c-0.124,-0.11 -0.11,-0.331 -0.207,-0.47c-0.097,-0.138 -0.511,-0.525 -0.746,-0.884c-0.142,-0.197 -0.299,-0.382 -0.47,-0.553l-0.138,0l0,-0.263c-0.111,-0.193 -0.788,-0.981 -1.023,-1.022c0,-0.152 0,-0.194 0,-0.263c-0.137,-0.297 -0.319,-0.572 -0.539,-0.815l-0.207,-0.069l0,-0.346c-0.16,-0.24 -0.34,-0.467 -0.539,-0.677l-0.138,0l0,-0.276c0,-0.069 -0.221,-0.069 -0.263,-0.125c-0.235,-0.304 -0.276,-0.649 -0.484,-0.953c-0.926,-1.382 -1.865,-2.916 -2.764,-4.34c-0.207,-0.331 -0.193,-0.691 -0.414,-1.022c-0.625,-1.096 -1.188,-2.227 -1.686,-3.386c-3.307,-6.842 -5.246,-14.264 -5.708,-21.849l-0.193,0c0.128,-0.557 0.175,-1.129 0.138,-1.7c-0.127,-0.45 -0.197,-0.914 -0.207,-1.382c0.082,-0.919 0.082,-1.844 0,-2.764c-0.079,-0.661 -0.008,-1.332 0.207,-1.962c0.037,-0.57 -0.01,-1.143 -0.138,-1.7l0.193,0c0.04,-1.784 0.272,-3.558 0.691,-5.293l-0.069,-0.608l0.125,0l0,-0.746c0.124,-0.456 0.262,-1.147 0.414,-1.562l0,-0.608c0.129,-0.311 0.24,-0.629 0.332,-0.953c0.092,-0.324 0,-0.857 0,-0.885c0,-0.027 0.193,-0.097 0.207,-0.138l0,-0.47c0.166,-0.456 0.373,-1.105 0.539,-1.561c0.166,-0.457 0,-0.622 0.138,-0.954c0.388,-0.903 0.729,-1.826 1.023,-2.764c0.138,-0.401 0.097,-0.677 0.263,-1.078c1.382,-3.054 2.611,-6.108 4.145,-8.955c0.809,-1.515 1.733,-2.966 2.764,-4.339c0.235,-0.318 0.484,-0.705 0.678,-1.023l0,-0.346c0,-0.082 0.276,-0.096 0.345,-0.193c0.29,-0.484 0.498,-0.898 0.802,-1.382l0.276,-0.124c0.111,-0.139 0.097,-0.346 0.207,-0.484c0.111,-0.138 0.456,-0.29 0.539,-0.746l0.208,0c0.29,-0.829 1.202,-1.382 1.699,-2.032c0.557,-0.763 1.192,-1.467 1.894,-2.1c0.317,-0.291 0.525,-0.705 0.815,-1.023c0.475,-0.509 0.998,-0.972 1.562,-1.382c0.746,-0.567 1.299,-1.7 2.238,-2.031l0,-0.222c0.139,0 0.125,0 0.194,0c0.525,-0.179 0.871,-0.718 1.23,-1.078l0.332,0c0.483,-0.276 0.815,-0.76 1.381,-1.022l0,-0.207c0.913,-0.07 1.977,-1.562 2.986,-1.756l0,-0.207c0.428,0 0.483,-0.235 0.746,-0.401c0.262,-0.165 0.331,0 0.47,-0.138c0.138,-0.138 0.179,-0.276 0.276,-0.345l0.194,0.069c0.096,-0.111 0,-0.208 0.138,-0.263c0.208,-0.019 0.412,-0.065 0.608,-0.138c0.235,-0.152 0.525,-0.498 0.677,-0.553c0.152,-0.055 0,0.083 0.138,0c0.061,-0.052 0.109,-0.119 0.138,-0.193c0.097,0 0,0.193 0.139,0.069c0.525,-0.152 0.815,-0.539 1.381,-0.622l0,-0.194l0.139,0c0.096,-0.082 0.331,-0.124 0.47,-0.207c0.138,-0.083 0,-0.097 0.207,-0.138c0.207,-0.041 0.912,-0.442 1.216,-0.608l0.138,0.138l0,-0.207c0.205,0.018 0.412,-0.005 0.608,-0.069l0.138,-0.263l0.208,0.125l0,-0.194c0.124,-0.083 0.152,0 0.276,0c0.125,0 0,-0.069 0,-0.207c0.677,0.069 0.815,-0.249 1.285,-0.47c0.125,-0.069 0,0.207 0.208,0.124c0.162,-0.102 0.319,-0.213 0.47,-0.331c0.069,0 0.138,0.124 0.276,0.069c1.066,-0.487 2.183,-0.854 3.33,-1.092l0,-0.207c0.331,0.087 0.679,0.087 1.009,0l0,-0.208c0.249,0 0.29,0.208 0.539,0l0.069,-0.207c0.194,0 0.166,0.194 0.415,0.138l0.207,-0.207c0.166,0 0.318,0.124 0.539,0l0.069,-0.207l0.539,0.069l0,-0.194c0.083,0 0.346,0.111 0.677,0l0,-0.207c0.539,0.111 0.36,0.152 0.816,0c0.249,-0.124 0.483,0.152 0.746,0l0.069,-0.207c0.277,-0.152 0.332,0.193 0.608,0.138l0.277,-0.069l0,-0.138c0.29,-0.139 0.608,0.165 0.939,0l0.069,-0.194c0,0 0.761,0.18 1.092,0c0,0 0.111,-0.193 0.138,-0.193c0.028,0 0.857,0.193 1.286,0c0,0 0.179,-0.194 0.207,-0.208c0.653,0.043 1.309,0.043 1.962,0c0.645,-0.149 1.302,-0.241 1.963,-0.276c0.661,-0.035 0.124,0.207 0.138,0.207l0.746,0c0.733,-0.331 1.797,0 2.764,0c0.641,0.001 1.281,0.07 1.907,0.208c0.318,0 0.47,-0.332 0.816,-0.139l0,0.194c0.373,0.193 0.912,-0.138 1.077,0l0,0.193c0.318,0.166 0.581,-0.096 0.885,0c0.082,0.076 0.17,0.145 0.263,0.208c0.331,0.083 0.345,-0.263 0.621,-0.139c0,0 0.111,0.249 0.194,0.277l0.484,0c0.179,0 0.138,0.166 0.262,0.207c0.125,0.042 0.677,-0.166 0.94,-0.193Z" style="fill:#fff;"/><g><path d="M173.635,24.41l17.546,0c8.139,0 14.022,1.184 17.647,3.555c3.625,2.374 5.437,6.12 5.437,11.24c0,3.45 -0.888,6.32 -2.668,8.611c-1.778,2.29 -4.34,3.732 -7.681,4.326l0,0.405c4.151,0.782 7.203,2.325 9.158,4.629c1.952,2.305 2.93,5.423 2.93,9.358c0,5.311 -1.854,9.467 -5.559,12.473c-3.705,3.003 -8.859,4.507 -15.464,4.507l-21.346,0l0,-59.104Zm9.662,24.418l9.299,0c4.043,0 6.993,-0.642 8.854,-1.921c1.861,-1.281 2.79,-3.456 2.79,-6.529c0,-2.776 -1.005,-4.784 -3.013,-6.023c-2.008,-1.24 -5.195,-1.861 -9.561,-1.861l-8.369,0l0,16.334Zm0,7.842l0,18.719l10.269,0c4.043,0 7.095,-0.775 9.158,-2.325c2.061,-1.55 3.091,-3.997 3.091,-7.339c0,-3.073 -1.051,-5.35 -3.153,-6.831c-2.102,-1.483 -5.294,-2.224 -9.581,-2.224l-9.784,0Z" style="fill:#fff;fill-rule:nonzero;"/><path d="M246.811,84.322c-6.955,0 -12.392,-2.029 -16.313,-6.083c-3.922,-4.057 -5.884,-9.644 -5.884,-16.757c0,-7.305 1.82,-13.045 5.458,-17.224c3.639,-4.177 8.638,-6.265 15,-6.265c5.901,0 10.566,1.792 13.988,5.377c3.422,3.583 5.133,8.517 5.133,14.795l0,5.136l-29.795,0c0.136,4.337 1.307,7.675 3.517,10.004c2.21,2.332 5.324,3.498 9.34,3.498c2.64,0 5.101,-0.25 7.378,-0.747c2.276,-0.499 4.723,-1.329 7.336,-2.486l0,7.721c-2.316,1.103 -4.662,1.885 -7.033,2.343c-2.371,0.46 -5.08,0.688 -8.125,0.688Zm-1.739,-39.133c-3.02,0 -5.437,0.957 -7.259,2.871c-1.819,1.913 -2.902,4.703 -3.254,8.367l20.297,0c-0.056,-3.692 -0.943,-6.488 -2.668,-8.388c-1.725,-1.9 -4.099,-2.85 -7.116,-2.85Z" style="fill:#fff;fill-rule:nonzero;"/><path d="M291.644,76.64c2.319,0 4.635,-0.363 6.953,-1.09l0,7.155c-1.051,0.458 -2.406,0.842 -4.062,1.152c-1.658,0.311 -3.376,0.465 -5.156,0.465c-9.002,0 -13.502,-4.743 -13.502,-14.23l0,-24.095l-6.104,0l0,-4.205l6.55,-3.477l3.233,-9.459l5.863,0l0,9.944l12.734,0l0,7.197l-12.734,0l0,23.932c0,2.293 0.572,3.984 1.718,5.076c1.145,1.09 2.647,1.635 4.507,1.635Z" style="fill:#fff;fill-rule:nonzero;"/><path d="M324.188,76.64c2.318,0 4.636,-0.363 6.955,-1.09l0,7.155c-1.051,0.458 -2.406,0.842 -4.064,1.152c-1.658,0.311 -3.376,0.465 -5.154,0.465c-9.002,0 -13.503,-4.743 -13.503,-14.23l0,-24.095l-6.106,0l0,-4.205l6.55,-3.477l3.234,-9.459l5.862,0l0,9.944l12.734,0l0,7.197l-12.734,0l0,23.932c0,2.293 0.573,3.984 1.718,5.076c1.145,1.09 2.649,1.635 4.508,1.635Z" style="fill:#fff;fill-rule:nonzero;"/><path d="M359.604,84.322c-6.955,0 -12.392,-2.029 -16.313,-6.083c-3.922,-4.057 -5.884,-9.644 -5.884,-16.757c0,-7.305 1.82,-13.045 5.458,-17.224c3.639,-4.177 8.638,-6.265 15,-6.265c5.901,0 10.563,1.792 13.988,5.377c3.422,3.583 5.133,8.517 5.133,14.795l0,5.136l-29.795,0c0.136,4.337 1.307,7.675 3.517,10.004c2.21,2.332 5.324,3.498 9.34,3.498c2.64,0 5.101,-0.25 7.378,-0.747c2.276,-0.499 4.723,-1.329 7.336,-2.486l0,7.721c-2.316,1.103 -4.662,1.885 -7.033,2.343c-2.371,0.46 -5.08,0.688 -8.125,0.688Zm-1.739,-39.133c-3.02,0 -5.439,0.957 -7.258,2.871c-1.82,1.913 -2.903,4.703 -3.255,8.367l20.297,0c-0.056,-3.692 -0.946,-6.488 -2.671,-8.388c-1.724,-1.9 -4.096,-2.85 -7.113,-2.85Z" style="fill:#fff;fill-rule:nonzero;"/><path d="M410.461,37.993c1.913,0 3.489,0.133 4.731,0.405l-0.932,8.852c-1.347,-0.322 -2.748,-0.485 -4.204,-0.485c-3.799,0 -6.879,1.239 -9.239,3.719c-2.357,2.481 -3.537,5.701 -3.537,9.664l0,23.366l-9.498,0l0,-44.714l7.438,0l1.253,7.884l0.485,0c1.481,-2.668 3.416,-4.784 5.801,-6.347c2.385,-1.562 4.954,-2.344 7.702,-2.344Z" style="fill:#fff;fill-rule:nonzero;"/><path d="M457.355,83.514l-32.299,0l0,-59.104l32.299,0l0,3.799l-28.175,0l0,22.357l26.6,0l0,3.8l-26.6,0l0,25.347l28.175,0l0,3.801Z" style="fill:#fff;fill-rule:nonzero;"/><path d="M496.41,83.514l-1.01,-6.954l-0.324,0c-2.21,2.831 -4.48,4.832 -6.812,6.005c-2.333,1.17 -5.088,1.757 -8.269,1.757c-4.312,0 -7.667,-1.104 -10.066,-3.314c-2.399,-2.211 -3.597,-5.269 -3.597,-9.177c0,-4.287 1.785,-7.615 5.356,-9.986c3.572,-2.371 8.74,-3.625 15.504,-3.76l8.369,-0.242l0,-2.911c0,-4.177 -0.849,-7.332 -2.548,-9.46c-1.698,-2.13 -4.432,-3.194 -8.206,-3.194c-4.069,0 -8.287,1.131 -12.654,3.397l-1.495,-3.478c4.823,-2.263 9.595,-3.397 14.31,-3.397c4.825,0 8.429,1.254 10.816,3.761c2.385,2.506 3.576,6.414 3.576,11.724l0,29.229l-2.95,0Zm-16.171,-2.831c4.69,0 8.388,-1.34 11.097,-4.022c2.709,-2.682 4.064,-6.408 4.064,-11.178l0,-4.326l-7.682,0.325c-6.172,0.296 -10.572,1.26 -13.201,2.888c-2.626,1.631 -3.94,4.172 -3.94,7.622c0,2.748 0.842,4.885 2.526,6.408c1.686,1.522 4.064,2.283 7.136,2.283Z" style="fill:#fff;fill-rule:nonzero;"/><path d="M530.894,38.72c1.861,0 3.855,0.188 5.984,0.566l-0.768,3.84c-1.833,-0.457 -3.732,-0.687 -5.701,-0.687c-3.747,0 -6.819,1.591 -9.218,4.772c-2.399,3.178 -3.597,7.194 -3.597,12.047l0,24.256l-4.002,0l0,-43.946l3.395,0l0.405,7.926l0.282,0c1.806,-3.236 3.733,-5.506 5.782,-6.812c2.047,-1.309 4.526,-1.962 7.438,-1.962Z" style="fill:#fff;fill-rule:nonzero;"/><path d="M573.06,72.073c0,3.935 -1.495,6.959 -4.487,9.075c-2.992,2.116 -7.238,3.174 -12.734,3.174c-5.877,0 -10.538,-0.902 -13.988,-2.707l0,-4.326c4.42,2.21 9.082,3.314 13.988,3.314c4.339,0 7.633,-0.72 9.884,-2.162c2.25,-1.442 3.374,-3.362 3.374,-5.761c0,-2.21 -0.894,-4.071 -2.688,-5.58c-1.792,-1.508 -4.736,-2.992 -8.832,-4.448c-4.392,-1.589 -7.479,-2.957 -9.259,-4.103c-1.778,-1.145 -3.119,-2.438 -4.022,-3.88c-0.902,-1.442 -1.355,-3.201 -1.355,-5.276c0,-3.288 1.382,-5.89 4.144,-7.803c2.762,-1.914 6.624,-2.87 11.582,-2.87c4.745,0 9.246,0.89 13.503,2.668l-1.495,3.638c-4.312,-1.778 -8.314,-2.668 -12.008,-2.668c-3.583,0 -6.428,0.594 -8.53,1.78c-2.102,1.185 -3.153,2.829 -3.153,4.931c0,2.291 0.817,4.124 2.447,5.499c1.631,1.373 4.816,2.91 9.561,4.609c3.962,1.428 6.844,2.714 8.652,3.859c1.805,1.146 3.16,2.447 4.061,3.903c0.904,1.456 1.355,3.167 1.355,5.134Z" style="fill:#fff;fill-rule:nonzero;"/></g><g><path d="M186.07,123.84l-12.236,0l0,-21.949l12.236,0l0,2.267l-9.684,0l0,7.071l9.098,0l0,2.252l-9.098,0l0,8.077l9.684,0l0,2.282Z" style="fill:#fff;fill-rule:nonzero;"/><path d="M200.678,123.84l-0.496,-2.342l-0.12,0c-0.821,1.031 -1.639,1.729 -2.454,2.094c-0.816,0.366 -1.835,0.548 -3.056,0.548c-1.631,0 -2.91,-0.42 -3.836,-1.261c-0.925,-0.84 -1.388,-2.036 -1.388,-3.588c0,-3.323 2.657,-5.064 7.972,-5.224l2.792,-0.09l0,-1.021c0,-1.291 -0.278,-2.245 -0.833,-2.86c-0.556,-0.616 -1.444,-0.924 -2.665,-0.924c-1.371,0 -2.922,0.421 -4.654,1.261l-0.766,-1.906c0.811,-0.441 1.699,-0.786 2.665,-1.036c0.966,-0.25 1.934,-0.375 2.905,-0.375c1.962,0 3.416,0.435 4.362,1.306c0.945,0.87 1.418,2.267 1.418,4.188l0,11.23l-1.846,0Zm-5.63,-1.756c1.551,0 2.77,-0.426 3.655,-1.276c0.886,-0.851 1.329,-2.042 1.329,-3.574l0,-1.486l-2.492,0.105c-1.982,0.07 -3.411,0.378 -4.286,0.924c-0.876,0.545 -1.314,1.393 -1.314,2.544c0,0.901 0.273,1.587 0.818,2.057c0.546,0.47 1.309,0.706 2.29,0.706Z" style="fill:#fff;fill-rule:nonzero;"/><path d="M215.165,107.085c0.731,0 1.387,0.061 1.967,0.181l-0.345,2.312c-0.681,-0.15 -1.281,-0.226 -1.802,-0.226c-1.331,0 -2.469,0.541 -3.415,1.622c-0.946,1.081 -1.419,2.427 -1.419,4.038l0,8.828l-2.492,0l0,-16.454l2.057,0l0.285,3.047l0.12,0c0.611,-1.071 1.346,-1.896 2.207,-2.477c0.861,-0.58 1.807,-0.871 2.837,-0.871Z" style="fill:#fff;fill-rule:nonzero;"/><path d="M233.512,122.084c0.44,0 0.865,-0.033 1.276,-0.098c0.41,-0.065 0.735,-0.133 0.976,-0.203l0,1.907c-0.271,0.13 -0.669,0.238 -1.194,0.323c-0.525,0.085 -0.998,0.127 -1.419,0.127c-3.183,0 -4.774,-1.676 -4.774,-5.029l0,-9.789l-2.357,0l0,-1.201l2.357,-1.036l1.051,-3.513l1.441,0l0,3.814l4.774,0l0,1.936l-4.774,0l0,9.684c0,0.991 0.235,1.751 0.706,2.282c0.47,0.53 1.116,0.796 1.937,0.796Z" style="fill:#fff;fill-rule:nonzero;"/><path d="M246.558,107.085c0.731,0 1.386,0.061 1.967,0.181l-0.346,2.312c-0.68,-0.15 -1.281,-0.226 -1.801,-0.226c-1.331,0 -2.47,0.541 -3.416,1.622c-0.945,1.081 -1.418,2.427 -1.418,4.038l0,8.828l-2.493,0l0,-16.454l2.057,0l0.285,3.047l0.121,0c0.61,-1.071 1.346,-1.896 2.207,-2.477c0.86,-0.58 1.806,-0.871 2.837,-0.871Z" style="fill:#fff;fill-rule:nonzero;"/><path d="M261.106,123.84l-0.496,-2.342l-0.12,0c-0.82,1.031 -1.639,1.729 -2.454,2.094c-0.816,0.366 -1.835,0.548 -3.056,0.548c-1.631,0 -2.91,-0.42 -3.835,-1.261c-0.926,-0.84 -1.389,-2.036 -1.389,-3.588c0,-3.323 2.657,-5.064 7.972,-5.224l2.792,-0.09l0,-1.021c0,-1.291 -0.277,-2.245 -0.833,-2.86c-0.555,-0.616 -1.444,-0.924 -2.665,-0.924c-1.371,0 -2.922,0.421 -4.654,1.261l-0.766,-1.906c0.811,-0.441 1.699,-0.786 2.665,-1.036c0.966,-0.25 1.934,-0.375 2.905,-0.375c1.962,0 3.416,0.435 4.362,1.306c0.946,0.87 1.418,2.267 1.418,4.188l0,11.23l-1.846,0Zm-5.63,-1.756c1.551,0 2.77,-0.426 3.656,-1.276c0.885,-0.851 1.328,-2.042 1.328,-3.574l0,-1.486l-2.492,0.105c-1.982,0.07 -3.41,0.378 -4.286,0.924c-0.876,0.545 -1.314,1.393 -1.314,2.544c0,0.901 0.273,1.587 0.818,2.057c0.546,0.47 1.309,0.706 2.29,0.706Z" style="fill:#fff;fill-rule:nonzero;"/><path d="M270.579,123.84l-2.492,0l0,-16.454l2.492,0l0,16.454Zm-2.702,-20.913c0,-0.571 0.14,-0.989 0.42,-1.254c0.28,-0.265 0.631,-0.398 1.051,-0.398c0.4,0 0.746,0.136 1.036,0.406c0.29,0.27 0.435,0.685 0.435,1.246c0,0.56 -0.145,0.978 -0.435,1.253c-0.29,0.276 -0.636,0.413 -1.036,0.413c-0.42,0 -0.771,-0.137 -1.051,-0.413c-0.28,-0.275 -0.42,-0.693 -0.42,-1.253Z" style="fill:#fff;fill-rule:nonzero;"/><path d="M287.124,123.84l0,-10.644c0,-1.341 -0.306,-2.342 -0.916,-3.003c-0.611,-0.66 -1.567,-0.991 -2.868,-0.991c-1.721,0 -2.982,0.466 -3.783,1.397c-0.801,0.93 -1.201,2.467 -1.201,4.609l0,8.632l-2.492,0l0,-16.454l2.027,0l0.405,2.252l0.12,0c0.51,-0.811 1.226,-1.439 2.147,-1.884c0.921,-0.446 1.947,-0.669 3.078,-0.669c1.981,0 3.473,0.478 4.474,1.434c1,0.956 1.501,2.485 1.501,4.587l0,10.734l-2.492,0Z" style="fill:#fff;fill-rule:nonzero;"/><path d="M297.228,123.84l-2.493,0l0,-16.454l2.493,0l0,16.454Zm-2.703,-20.913c0,-0.571 0.14,-0.989 0.421,-1.254c0.28,-0.265 0.63,-0.398 1.05,-0.398c0.401,0 0.746,0.136 1.036,0.406c0.291,0.27 0.436,0.685 0.436,1.246c0,0.56 -0.145,0.978 -0.436,1.253c-0.29,0.276 -0.635,0.413 -1.036,0.413c-0.42,0 -0.77,-0.137 -1.05,-0.413c-0.281,-0.275 -0.421,-0.693 -0.421,-1.253Z" style="fill:#fff;fill-rule:nonzero;"/><path d="M313.772,123.84l0,-10.644c0,-1.341 -0.305,-2.342 -0.916,-3.003c-0.61,-0.66 -1.566,-0.991 -2.867,-0.991c-1.722,0 -2.983,0.466 -3.784,1.397c-0.8,0.93 -1.201,2.467 -1.201,4.609l0,8.632l-2.492,0l0,-16.454l2.027,0l0.405,2.252l0.12,0c0.511,-0.811 1.226,-1.439 2.147,-1.884c0.921,-0.446 1.947,-0.669 3.078,-0.669c1.982,0 3.473,0.478 4.474,1.434c1.001,0.956 1.501,2.485 1.501,4.587l0,10.734l-2.492,0Z" style="fill:#fff;fill-rule:nonzero;"/><path d="M334.851,107.386l0,1.576l-3.048,0.36c0.28,0.351 0.53,0.809 0.751,1.374c0.22,0.566 0.33,1.204 0.33,1.914c0,1.612 -0.551,2.898 -1.652,3.859c-1.101,0.961 -2.612,1.441 -4.534,1.441c-0.49,0 -0.95,-0.04 -1.381,-0.12c-1.061,0.56 -1.591,1.266 -1.591,2.117c0,0.45 0.185,0.783 0.555,0.998c0.371,0.215 1.006,0.323 1.907,0.323l2.913,0c1.781,0 3.15,0.375 4.106,1.126c0.955,0.751 1.433,1.842 1.433,3.273c0,1.821 -0.73,3.21 -2.192,4.166c-1.461,0.956 -3.593,1.434 -6.395,1.434c-2.152,0 -3.811,-0.401 -4.977,-1.201c-1.166,-0.801 -1.749,-1.932 -1.749,-3.393c0,-1.001 0.32,-1.867 0.961,-2.598c0.64,-0.73 1.541,-1.226 2.702,-1.486c-0.42,-0.19 -0.773,-0.485 -1.058,-0.886c-0.286,-0.4 -0.428,-0.865 -0.428,-1.396c0,-0.6 0.16,-1.126 0.48,-1.576c0.321,-0.451 0.826,-0.886 1.517,-1.306c-0.851,-0.351 -1.544,-0.946 -2.08,-1.787c-0.535,-0.841 -0.803,-1.802 -0.803,-2.883c0,-1.801 0.541,-3.19 1.621,-4.166c1.081,-0.976 2.613,-1.464 4.595,-1.464c0.86,0 1.636,0.101 2.327,0.301l5.69,0Zm-13.122,19.217c0,0.89 0.375,1.566 1.126,2.026c0.751,0.461 1.827,0.691 3.228,0.691c2.092,0 3.641,-0.313 4.646,-0.938c1.006,-0.626 1.509,-1.474 1.509,-2.545c0,-0.891 -0.275,-1.509 -0.825,-1.854c-0.551,-0.345 -1.587,-0.518 -3.108,-0.518l-2.988,0c-1.131,0 -2.012,0.27 -2.642,0.811c-0.631,0.54 -0.946,1.316 -0.946,2.327Zm1.351,-13.948c0,1.151 0.326,2.022 0.976,2.613c0.651,0.59 1.556,0.885 2.717,0.885c2.433,0 3.649,-1.181 3.649,-3.543c0,-2.472 -1.231,-3.708 -3.694,-3.708c-1.171,0 -2.071,0.315 -2.702,0.946c-0.63,0.63 -0.946,1.566 -0.946,2.807Z" style="fill:#fff;fill-rule:nonzero;"/><path d="M356.334,123.84l-0.495,-2.342l-0.12,0c-0.821,1.031 -1.639,1.729 -2.455,2.094c-0.815,0.366 -1.834,0.548 -3.055,0.548c-1.631,0 -2.91,-0.42 -3.836,-1.261c-0.926,-0.84 -1.389,-2.036 -1.389,-3.588c0,-3.323 2.658,-5.064 7.972,-5.224l2.793,-0.09l0,-1.021c0,-1.291 -0.278,-2.245 -0.833,-2.86c-0.556,-0.616 -1.444,-0.924 -2.665,-0.924c-1.371,0 -2.923,0.421 -4.654,1.261l-0.766,-1.906c0.811,-0.441 1.699,-0.786 2.665,-1.036c0.966,-0.25 1.934,-0.375 2.905,-0.375c1.962,0 3.415,0.435 4.361,1.306c0.946,0.87 1.419,2.267 1.419,4.188l0,11.23l-1.847,0Zm-5.629,-1.756c1.551,0 2.769,-0.426 3.655,-1.276c0.886,-0.851 1.329,-2.042 1.329,-3.574l0,-1.486l-2.492,0.105c-1.982,0.07 -3.411,0.378 -4.287,0.924c-0.875,0.545 -1.313,1.393 -1.313,2.544c0,0.901 0.273,1.587 0.818,2.057c0.545,0.47 1.309,0.706 2.29,0.706Z" style="fill:#fff;fill-rule:nonzero;"/><path d="M374.575,123.84l0,-10.644c0,-1.341 -0.305,-2.342 -0.915,-3.003c-0.611,-0.66 -1.567,-0.991 -2.868,-0.991c-1.721,0 -2.982,0.466 -3.783,1.397c-0.801,0.93 -1.201,2.467 -1.201,4.609l0,8.632l-2.492,0l0,-16.454l2.026,0l0.406,2.252l0.12,0c0.51,-0.811 1.226,-1.439 2.147,-1.884c0.921,-0.446 1.946,-0.669 3.077,-0.669c1.982,0 3.473,0.478 4.474,1.434c1.001,0.956 1.502,2.485 1.502,4.587l0,10.734l-2.493,0Z" style="fill:#fff;fill-rule:nonzero;"/><path d="M393.387,121.633l-0.135,0c-1.151,1.672 -2.873,2.507 -5.165,2.507c-2.152,0 -3.826,-0.735 -5.022,-2.206c-1.196,-1.472 -1.794,-3.564 -1.794,-6.276c0,-2.712 0.601,-4.819 1.802,-6.321c1.201,-1.501 2.872,-2.252 5.014,-2.252c2.232,0 3.944,0.811 5.135,2.433l0.195,0l-0.105,-1.186l-0.06,-1.156l0,-6.696l2.492,0l0,23.36l-2.027,0l-0.33,-2.207Zm-4.984,0.421c1.701,0 2.935,-0.463 3.7,-1.389c0.766,-0.926 1.149,-2.42 1.149,-4.482l0,-0.525c0,-2.332 -0.388,-3.996 -1.164,-4.992c-0.775,-0.996 -2.014,-1.494 -3.715,-1.494c-1.462,0 -2.58,0.568 -3.356,1.704c-0.776,1.136 -1.163,2.74 -1.163,4.812c0,2.102 0.385,3.688 1.156,4.759c0.77,1.071 1.901,1.607 3.393,1.607Z" style="fill:#fff;fill-rule:nonzero;"/><path d="M429.989,123.84l0,-10.704c0,-1.311 -0.28,-2.295 -0.841,-2.95c-0.56,-0.656 -1.431,-0.984 -2.612,-0.984c-1.551,0 -2.697,0.446 -3.438,1.337c-0.741,0.89 -1.111,2.262 -1.111,4.113l0,9.188l-2.492,0l0,-10.704c0,-1.311 -0.28,-2.295 -0.841,-2.95c-0.56,-0.656 -1.436,-0.984 -2.627,-0.984c-1.561,0 -2.705,0.468 -3.431,1.404c-0.725,0.936 -1.088,2.47 -1.088,4.602l0,8.632l-2.492,0l0,-16.454l2.026,0l0.406,2.252l0.12,0c0.47,-0.801 1.133,-1.427 1.989,-1.877c0.856,-0.45 1.814,-0.676 2.875,-0.676c2.572,0 4.254,0.931 5.045,2.793l0.12,0c0.49,-0.861 1.201,-1.541 2.132,-2.042c0.93,-0.5 1.991,-0.751 3.182,-0.751c1.862,0 3.256,0.478 4.182,1.434c0.925,0.956 1.388,2.485 1.388,4.587l0,10.734l-2.492,0Z" style="fill:#fff;fill-rule:nonzero;"/><path d="M439.958,107.386l0,10.674c0,1.341 0.305,2.342 0.916,3.003c0.61,0.66 1.566,0.991 2.867,0.991c1.722,0 2.98,-0.471 3.776,-1.412c0.796,-0.94 1.194,-2.477 1.194,-4.609l0,-8.647l2.492,0l0,16.454l-2.057,0l-0.36,-2.207l-0.135,0c-0.511,0.811 -1.219,1.432 -2.125,1.862c-0.906,0.43 -1.939,0.645 -3.1,0.645c-2.002,0 -3.501,-0.475 -4.497,-1.426c-0.995,-0.951 -1.493,-2.472 -1.493,-4.564l0,-10.764l2.522,0Z" style="fill:#fff;fill-rule:nonzero;"/><path d="M467.102,119.351c0,1.532 -0.571,2.713 -1.712,3.543c-1.141,0.831 -2.742,1.246 -4.804,1.246c-2.182,0 -3.883,-0.345 -5.104,-1.035l0,-2.312c0.79,0.4 1.638,0.715 2.544,0.945c0.906,0.231 1.779,0.346 2.62,0.346c1.301,0 2.302,-0.208 3.003,-0.623c0.7,-0.416 1.051,-1.049 1.051,-1.9c0,-0.64 -0.278,-1.188 -0.834,-1.643c-0.555,-0.456 -1.639,-0.994 -3.25,-1.614c-1.531,-0.571 -2.62,-1.069 -3.265,-1.494c-0.646,-0.426 -1.126,-0.909 -1.442,-1.449c-0.315,-0.54 -0.473,-1.186 -0.473,-1.937c0,-1.341 0.546,-2.399 1.637,-3.175c1.091,-0.776 2.587,-1.164 4.489,-1.164c1.771,0 3.503,0.361 5.194,1.081l-0.885,2.027c-1.652,-0.68 -3.148,-1.021 -4.489,-1.021c-1.181,0 -2.072,0.185 -2.673,0.556c-0.6,0.37 -0.9,0.881 -0.9,1.531c0,0.441 0.112,0.816 0.337,1.126c0.226,0.31 0.588,0.606 1.089,0.886c0.5,0.28 1.461,0.686 2.882,1.216c1.952,0.711 3.271,1.426 3.956,2.147c0.686,0.721 1.029,1.626 1.029,2.717Z" style="fill:#fff;fill-rule:nonzero;"/><path d="M473.647,123.84l-2.492,0l0,-16.454l2.492,0l0,16.454Zm-2.702,-20.913c0,-0.571 0.14,-0.989 0.42,-1.254c0.281,-0.265 0.631,-0.398 1.051,-0.398c0.401,0 0.746,0.136 1.036,0.406c0.291,0.27 0.436,0.685 0.436,1.246c0,0.56 -0.145,0.978 -0.436,1.253c-0.29,0.276 -0.635,0.413 -1.036,0.413c-0.42,0 -0.77,-0.137 -1.051,-0.413c-0.28,-0.275 -0.42,-0.693 -0.42,-1.253Z" style="fill:#fff;fill-rule:nonzero;"/><path d="M485.508,124.14c-2.382,0 -4.226,-0.733 -5.532,-2.199c-1.307,-1.466 -1.96,-3.541 -1.96,-6.223c0,-2.752 0.663,-4.879 1.99,-6.381c1.326,-1.501 3.215,-2.252 5.667,-2.252c0.791,0 1.581,0.086 2.372,0.256c0.791,0.17 1.411,0.37 1.862,0.6l-0.766,2.117c-0.55,-0.22 -1.151,-0.403 -1.801,-0.548c-0.651,-0.145 -1.227,-0.218 -1.727,-0.218c-3.343,0 -5.014,2.132 -5.014,6.396c0,2.022 0.407,3.573 1.223,4.654c0.816,1.081 2.024,1.622 3.626,1.622c1.371,0 2.777,-0.296 4.219,-0.886l0,2.207c-1.101,0.57 -2.488,0.855 -4.159,0.855Z" style="fill:#fff;fill-rule:nonzero;"/><path d="M506.872,122.084c0.44,0 0.865,-0.033 1.276,-0.098c0.41,-0.065 0.735,-0.133 0.976,-0.203l0,1.907c-0.271,0.13 -0.668,0.238 -1.194,0.323c-0.525,0.085 -0.998,0.127 -1.419,0.127c-3.182,0 -4.774,-1.676 -4.774,-5.029l0,-9.789l-2.357,0l0,-1.201l2.357,-1.036l1.051,-3.513l1.441,0l0,3.814l4.775,0l0,1.936l-4.775,0l0,9.684c0,0.991 0.236,1.751 0.706,2.282c0.47,0.53 1.116,0.796 1.937,0.796Z" style="fill:#fff;fill-rule:nonzero;"/><path d="M523.671,123.84l0,-10.644c0,-1.341 -0.305,-2.342 -0.915,-3.003c-0.611,-0.66 -1.567,-0.991 -2.868,-0.991c-1.731,0 -2.995,0.471 -3.791,1.412c-0.795,0.94 -1.193,2.482 -1.193,4.624l0,8.602l-2.492,0l0,-23.36l2.492,0l0,7.071c0,0.851 -0.04,1.556 -0.12,2.117l0.15,0c0.49,-0.791 1.188,-1.414 2.094,-1.869c0.906,-0.456 1.939,-0.683 3.1,-0.683c2.012,0 3.521,0.477 4.527,1.433c1.006,0.956 1.509,2.475 1.509,4.557l0,10.734l-2.493,0Z" style="fill:#fff;fill-rule:nonzero;"/><path d="M538.234,124.14c-2.432,0 -4.351,-0.74 -5.757,-2.221c-1.407,-1.482 -2.11,-3.539 -2.11,-6.171c0,-2.652 0.653,-4.759 1.96,-6.32c1.306,-1.562 3.06,-2.343 5.262,-2.343c2.061,0 3.693,0.679 4.894,2.035c1.201,1.356 1.802,3.145 1.802,5.367l0,1.576l-11.335,0c0.05,1.932 0.538,3.398 1.463,4.399c0.926,1.001 2.23,1.502 3.911,1.502c1.772,0 3.523,-0.371 5.255,-1.111l0,2.222c-0.881,0.38 -1.714,0.653 -2.5,0.818c-0.785,0.165 -1.734,0.247 -2.845,0.247Zm-0.675,-14.968c-1.322,0 -2.375,0.431 -3.161,1.291c-0.785,0.861 -1.248,2.052 -1.388,3.574l8.602,0c0,-1.572 -0.35,-2.775 -1.051,-3.611c-0.7,-0.836 -1.701,-1.254 -3.002,-1.254Z" style="fill:#fff;fill-rule:nonzero;"/><path d="M562.736,115.598c0,2.682 -0.676,4.777 -2.027,6.283c-1.351,1.506 -3.218,2.259 -5.6,2.259c-1.471,0 -2.777,-0.345 -3.918,-1.035c-1.141,-0.691 -2.022,-1.682 -2.643,-2.973c-0.62,-1.291 -0.931,-2.803 -0.931,-4.534c0,-2.682 0.671,-4.772 2.012,-6.268c1.341,-1.496 3.203,-2.245 5.585,-2.245c2.302,0 4.131,0.766 5.487,2.298c1.357,1.531 2.035,3.603 2.035,6.215Zm-12.536,0c0,2.102 0.42,3.703 1.261,4.804c0.841,1.101 2.077,1.652 3.708,1.652c1.632,0 2.87,-0.548 3.716,-1.644c0.846,-1.096 1.268,-2.7 1.268,-4.812c0,-2.092 -0.422,-3.681 -1.268,-4.767c-0.846,-1.086 -2.094,-1.629 -3.746,-1.629c-1.631,0 -2.862,0.536 -3.693,1.607c-0.831,1.071 -1.246,2.667 -1.246,4.789Z" style="fill:#fff;fill-rule:nonzero;"/><path d="M574.611,107.085c0.731,0 1.386,0.061 1.967,0.181l-0.345,2.312c-0.681,-0.15 -1.282,-0.226 -1.802,-0.226c-1.331,0 -2.47,0.541 -3.415,1.622c-0.946,1.081 -1.419,2.427 -1.419,4.038l0,8.828l-2.492,0l0,-16.454l2.056,0l0.286,3.047l0.12,0c0.61,-1.071 1.346,-1.896 2.207,-2.477c0.86,-0.58 1.806,-0.871 2.837,-0.871Z" style="fill:#fff;fill-rule:nonzero;"/><path d="M577.043,107.386l2.673,0l3.603,9.383c0.791,2.142 1.281,3.688 1.471,4.639l0.12,0c0.13,-0.51 0.403,-1.384 0.818,-2.62c0.416,-1.236 1.774,-5.037 4.077,-11.402l2.672,0l-7.071,18.736c-0.701,1.852 -1.519,3.165 -2.455,3.941c-0.936,0.776 -2.084,1.164 -3.446,1.164c-0.76,0 -1.511,-0.085 -2.252,-0.256l0,-1.996c0.551,0.12 1.167,0.18 1.847,0.18c1.712,0 2.933,-0.961 3.663,-2.883l0.916,-2.342l-6.636,-16.544Z" style="fill:#fff;fill-rule:nonzero;"/></g></g></svg>